<svg xmlns="http://www.w3.org/2000/svg" viewBox="0 0 90.75 114.75"><defs><style>.cls-1{fill:#72c8f1;stroke:#5fa7c9;stroke-miterlimit:10;stroke-width:0.79px;}.cls-2{fill:#49b8ea;}</style></defs><g id="Layer_2" data-name="Layer 2"><g id="balloon_4" data-name="balloon 4"><g id="body"><path class="cls-1" d="M44.31,2.66c-8.51,2.81-14.84.65-20.82-.42-9.77-1.75-11.14,8-17.11,14.34C.2,23.16,7.53,38.12,2.44,48.22c-5,9.94-.09,17.48,7.16,23.8,6.85,6,3,13.09,9.44,18.59h0l18.47,15.51c-2.34,4.34-2.71,8.52-.21,8.2,7-.87,7-1.08,14,0,2.5.39,2.12-3.81-.23-8.19,0,0,15.26-14.4,19.49-18.66h0C90.86,76.7,89,61.79,90.3,38c.84-15.07-8.44-13.32-14.48-23C66.33-.16,58.49-2,44.31,2.66Z"/><ellipse class="cls-2" cx="44.31" cy="105.9" rx="7.71" ry="1.86"/></g></g></g></svg>