<svg xmlns="http://www.w3.org/2000/svg" viewBox="0 0 39.79 63.27">
    <defs>
        <style>.cls-1{fill:#49b8ea;}.cls-2{fill:#72c8f1;stroke:#5fa7c9;stroke-miterlimit:10;stroke-width:0.44px;}</style>
    </defs>
    <g id="Layer_2" data-name="Layer 2">
        <g id="balloon_8" data-name="balloon 8">
            <g id="body">
                <path class="cls-1" d="M11.38,1.75C11,2.59,9.22,3.43,6.57,3.43S1.75,2.67,1.75,1.75,3.91-.06,6.57.06C9.65.2,11.75.94,11.38,1.75Z" />
                <path class="cls-2" d="M18.49,10.26c-1-1-1.95-7.88-3.66-8.52C9.59-.22,3.27-.3,2,1.6H2C.38,3.59-.46,8.78.91,7.92c4.45-2.79,7-.25,4.45-6.38,0,0,5.77,2.74,5.25,8.46-1.18,13,3,11.12,4,15.2,2,8.5-5.65,14.19,5.08,28.11,4,5.18,3.12,10.78,6.81,9.58C31,61.42,36.57,58.3,36.57,43.64c0-11.18,11.62-3-10.87-26.8C24.67,15.75,19.65,11.44,18.49,10.26Z" />
            </g>
        </g>
        
    </g>
</svg>