<svg xmlns="http://www.w3.org/2000/svg" viewBox="0 0 60.92 103.38"><defs><style>.cls-1{fill:#72c8f1;stroke:#5fa7c9;stroke-miterlimit:10;stroke-width:0.63px;}.cls-2{fill:#49b8ea;}</style></defs><g id="Layer_2" data-name="Layer 2"><g id="balloon_5" data-name="balloon 5"><g id="body"><path class="cls-1" d="M31,.48C24.19-1.1,8.67,9,4.5,14.72c-4.32,5.94.8,19.45-2.76,28.57s-.06,15.79,5,21.5c4.79,5.39,2.09,11.82,6.6,16.78v0l12.92,14c-1.64,3.92-3.69,7.73-1.94,7.45,4.88-.79,7.9-1,12.79,0,1.75.35.26-3.47-1.38-7.42,0,0,10.67-13,13.63-16.86h0C63.57,69,55,62,59.6,40.93,62.93,25.55,57.28,22,53.05,13.3,46.42-.4,35.2,1.44,31,.48Z"/><ellipse class="cls-2" cx="31.02" cy="95.38" rx="5.39" ry="1.68"/></g></g></g></svg>