<svg xmlns="http://www.w3.org/2000/svg" viewBox="0 0 90.74 217.53">
    <defs>
        <style>.cls-1{fill:#74c8f0;stroke:#60a7c9;stroke-width:0.79px;}.cls-1,.cls-3{stroke-miterlimit:10;}.cls-2{fill:#4cb8e9;}.cls-3{fill:none;stroke:#231f20;}.cls-4{fill:#aadcf7;}</style>
    </defs>
        <g id="Layer_1" data-name="Layer 1">

            <!-- Body -->
            <path class="cls-1" d="M44.3,2.65c-8.51,2.81-14.84.65-20.82-.42-9.77-1.75-11.14,8-17.11,14.34C.19,23.15,7.52,38.11,2.43,48.21c-5,9.94-.09,17.48,7.16,23.8,6.85,6,3,13.09,9.44,18.59h0L37.5,106.11c-2.34,4.34-2.71,8.52-.21,8.2,7-.87,7-1.08,14,0,2.5.39,2.12-3.81-.23-8.19,0,0,15.26-14.4,19.49-18.66h0C90.85,76.69,89,61.78,90.29,38c.84-15.07-8.44-13.32-14.48-23C66.32-.17,58.48-2,44.3,2.65Z" />

            <!--bottom-->
            <ellipse class="cls-2" cx="40.61" cy="105.89" rx="7.71" ry="1.86" />
            <path class="cls-3" d="M51.72,108.46C52,103.61,35,107.15,35.54,107c3-1.17,14.19.48,16.18,1.51,2.32,1.2,8.35,49.8-11.52,66.34C24.66,187.73,22.13,193,35.31,217.29" />
            <path class="cls-4" d="M23.78,18.75c4-1.77,3.54-5.75,1.5-7.35s-5.48-.49-7.7,2.46-2.39,6.64-.33,8.24S20.32,20.3,23.78,18.75Z" />
            <path class="cls-4" d="M10.53,26.86a2.57,2.57,0,0,0,.55,3.26c1.16.94,2.14.77,2.31-1.54.1-1.45.34-1.29-.07-2.24C12.12,23.53,11.19,25.57,10.53,26.86Z" />
        </g>
</svg>