<svg xmlns="http://www.w3.org/2000/svg" viewBox="0 0 85.85 37.25"><defs><style>.cls-1{fill:#49b8ea;}.cls-2{fill:#72c8f1;stroke:#5fa7c9;stroke-miterlimit:10;stroke-width:0.56px;}</style></defs><g id="Layer_2" data-name="Layer 2"><g id="balloon_7" data-name="balloon 7"><g id="body"><path class="cls-1" d="M12,20.61c-.38.85-2.15,1.68-4.81,1.68s-4.82-.75-4.82-1.68,2.16-1.8,4.82-1.68C10.26,19.07,12.36,19.8,12,20.61Z"/><path class="cls-2" d="M23.62,2.1C16.64,4.68,3.28,15,1,18c-1.15,1.46,1.66,2.72,1.66,2.72C.49,23-.64,29,1.2,28c6-3.24,6-.28,11.59.51,2.07.29.79-5.25-1.17-7.83a6.51,6.51,0,0,0,7-3.12c3-4.66,21.07,18.47,32.4,15.3,12.83-3.59,27,8.19,33.12,2.55,4-3.66-1.26-11.18-3.33-16C79,15.36,70,8.18,64.29,6.55,44.88,1,34.24-1.82,23.62,2.1Z"/></g></g></g></svg>