<svg xmlns="http://www.w3.org/2000/svg" viewBox="0 0 91.01 52"><defs><style>.cls-1{fill:#72c8f1;stroke:#5fa7c9;stroke-miterlimit:10;stroke-width:0.59px;}.cls-2{fill:#49b8ea;}</style></defs><g id="Layer_2" data-name="Layer 2"><g id="balloon_6" data-name="balloon 6"><g id="body"><path class="cls-1" d="M48.14,5.56C40.78,4.29,25.22,3,20.71,7.57c-4.65,4.78-11.31,2-15.15,9.31S-2.36,30.4,2.5,34.4h0L16.44,45.69c-1.77,3.16-4,6.23-2.09,6a44.6,44.6,0,0,1,13.79,0c1.89.28.29-2.8-1.48-6,0,0,3.85,1.42,6.31-3.85,2.69-5.75,16.29,2.78,26.54-1.14,11.61-4.43,23-16,28.57-23,6.25-7.85.31-11.9-6.81-14.72C62-4.62,52.65,6.33,48.14,5.56Z"/><ellipse class="cls-2" cx="21.33" cy="46.31" rx="5.39" ry="1.68"/></g></g></g></svg>